<?xml version="1.0" standalone="no"?><!DOCTYPE svg PUBLIC "-//W3C//DTD SVG 1.1//EN" "http://www.w3.org/Graphics/SVG/1.1/DTD/svg11.dtd"><svg width="100%" height="100%" viewBox="0 0 130 65" version="1.1" xmlns="http://www.w3.org/2000/svg" xmlns:xlink="http://www.w3.org/1999/xlink" xml:space="preserve" style="fill-rule:evenodd;clip-rule:evenodd;stroke-linejoin:round;stroke-miterlimit:1.41421;"><path d="M22.0806,28.6111l-3.1537,3.1537l3.1537,3.1537l3.1537,-3.1537l-3.1537,-3.1537Z" style="fill:#565657;"/><path d="M19.38,45.86l-13.81,-13.81l13.81,-13.81l13.81,13.82l-13.81,13.8ZM19.38,42.03l10,-10l-10,-10l-10,10l10,10Z" style="fill:#565657;fill-rule:nonzero;"/><g><path d="M46.5574,33.84l0,-1.47017l-6.1588,0l0,-11.7812l-1.64897,0l0,13.2514l7.80777,0Z" style="fill:#565657;fill-rule:nonzero;"/><rect x="48.8819" y="20.5886" width="1.64897" height="13.2514" style="fill:#565657;fill-rule:nonzero;"/><path d="M59.6697,34.0784c3.91382,0 6.57601,-2.94033 6.57601,-6.85415c0,-3.91382 -2.66219,-6.85415 -6.57601,-6.85415c-3.93369,0 -6.57601,2.94033 -6.57601,6.85415c0,3.91382 2.64233,6.85415 6.57601,6.85415ZM59.6697,32.6082c-2.98007,0 -4.86744,-2.30458 -4.86744,-5.38399c0,-3.09927 1.88738,-5.38399 4.86744,-5.38399c2.9602,0 4.86744,2.28472 4.86744,5.38399c0,3.0794 -1.90724,5.38399 -4.86744,5.38399Z" style="fill:#565657;fill-rule:nonzero;"/><path d="M79.7951,33.84l0,-13.2514l-1.64897,0l0,10.3508l-7.62897,-10.3508l-1.6887,0l0,13.2514l1.64897,0l0,-10.5693l7.72831,10.5693l1.58937,0Z" style="fill:#565657;fill-rule:nonzero;"/><path d="M88.934,33.84c2.42379,0 3.83435,-1.4503 3.83435,-3.57608c0,-1.58937 -1.17216,-3.03967 -2.58272,-3.25821c1.21189,-0.258272 2.32445,-1.37083 2.32445,-3.03967c0,-1.98671 -1.41056,-3.37741 -3.71515,-3.37741l-5.90053,0l0,13.2514l6.0396,0ZM88.5167,26.3302l-3.97342,0l0,-4.27143l3.97342,0c1.49003,0 2.28472,0.953621 2.28472,2.14565c0,1.21189 -0.794684,2.12578 -2.28472,2.12578ZM88.5962,32.3698l-4.05289,0l0,-4.56944l4.05289,0c1.6291,0 2.46352,1.07282 2.46352,2.28472c0,1.41056 -0.913887,2.28472 -2.46352,2.28472Z" style="fill:#565657;fill-rule:nonzero;"/><path d="M101.43,34.0784c3.91382,0 6.57601,-2.94033 6.57601,-6.85415c0,-3.91382 -2.66219,-6.85415 -6.57601,-6.85415c-3.93369,0 -6.57601,2.94033 -6.57601,6.85415c0,3.91382 2.64233,6.85415 6.57601,6.85415ZM101.43,32.6082c-2.98007,0 -4.86744,-2.30458 -4.86744,-5.38399c0,-3.09927 1.88738,-5.38399 4.86744,-5.38399c2.9602,0 4.86744,2.28472 4.86744,5.38399c0,3.0794 -1.90724,5.38399 -4.86744,5.38399Z" style="fill:#565657;fill-rule:nonzero;"/><path d="M121.735,33.84l-5.14558,-6.81442l4.84757,-6.43694l-2.00658,0l-3.91382,5.30452l-3.93369,-5.30452l-2.00658,0l4.86744,6.45681l-5.16545,6.79455l2.00658,0l4.23169,-5.64226l4.23169,5.64226l1.98671,0Z" style="fill:#565657;fill-rule:nonzero;"/></g><path d="M40.6907,45.47c1.70518,0 2.81725,-1.17797 2.81725,-2.74311c0,-1.5569 -1.11207,-2.75135 -2.81725,-2.75135l-1.87817,0l0,5.49447l1.87817,0ZM40.6907,44.8604l-1.19445,0l0,-4.27531l1.19445,0c1.3592,0 2.10882,0.95556 2.10882,2.14177c0,1.17797 -0.774333,2.13353 -2.10882,2.13353Z" style="fill:#565657;fill-rule:nonzero;"/><path d="M44.8589,40.9229c0.230652,0 0.420117,-0.181227 0.420117,-0.411879c0,-0.230652 -0.189464,-0.420117 -0.420117,-0.420117c-0.222415,0 -0.411879,0.189464 -0.411879,0.420117c0,0.230652 0.189464,0.411879 0.411879,0.411879ZM45.1719,45.47l0,-3.97875l-0.617819,0l0,3.97875l0.617819,0Z" style="fill:#565657;fill-rule:nonzero;"/><path d="M48.0057,47.0846c0.972035,0 1.89464,-0.411879 1.89464,-1.72989l0,-3.86343l-0.617819,0l0,0.601344c-0.321266,-0.436592 -0.799045,-0.700194 -1.33449,-0.700194c-1.04617,0 -1.77108,0.790808 -1.77108,2.06763c0,1.28506 0.733145,2.0594 1.77108,2.0594c0.560156,0 1.04617,-0.304791 1.33449,-0.708432l0,0.568393c0,0.873184 -0.617819,1.19445 -1.27683,1.19445c-0.568393,0 -0.963797,-0.148276 -1.2933,-0.54368l-0.313028,0.461305c0.469542,0.461305 0.930847,0.593106 1.60633,0.593106ZM48.0963,44.9757c-0.799045,0 -1.27683,-0.642531 -1.27683,-1.51572c0,-0.881421 0.47778,-1.51572 1.27683,-1.51572c0.494255,0 0.972035,0.296553 1.18621,0.642531l0,1.73813c-0.214177,0.345978 -0.691957,0.650769 -1.18621,0.650769Z" style="fill:#565657;fill-rule:nonzero;"/><path d="M51.4407,40.9229c0.230652,0 0.420117,-0.181227 0.420117,-0.411879c0,-0.230652 -0.189464,-0.420117 -0.420117,-0.420117c-0.222415,0 -0.411879,0.189464 -0.411879,0.420117c0,0.230652 0.189464,0.411879 0.411879,0.411879ZM51.7538,45.47l0,-3.97875l-0.617819,0l0,3.97875l0.617819,0Z" style="fill:#565657;fill-rule:nonzero;"/><path d="M53.9944,45.5689c0.362454,0 0.584868,-0.107089 0.741382,-0.255365l-0.181227,-0.461305c-0.0823758,0.0906134 -0.247127,0.164752 -0.420117,0.164752c-0.27184,0 -0.403642,-0.214177 -0.403642,-0.51073l0,-2.47127l0.807283,0l0,-0.54368l-0.807283,0l0,-1.08736l-0.617819,0l0,1.08736l-0.659007,0l0,0.54368l0.659007,0l0,2.60308c0,0.593106 0.296553,0.930847 0.881421,0.930847Z" style="fill:#565657;fill-rule:nonzero;"/><path d="M58.5168,45.47l0,-2.73488c0,-0.963797 -0.700194,-1.34273 -1.54043,-1.34273c-0.650769,0 -1.1615,0.214177 -1.58985,0.659007l0.288315,0.428354c0.354216,-0.378929 0.741382,-0.551918 1.21916,-0.551918c0.576631,0 1.00499,0.304791 1.00499,0.840233l0,0.71667c-0.321266,-0.370691 -0.774333,-0.54368 -1.31801,-0.54368c-0.675482,0 -1.39215,0.420117 -1.39215,1.30978c0,0.864946 0.71667,1.31801 1.39215,1.31801c0.535443,0 0.98851,-0.189464 1.31801,-0.551918l0,0.453067l0.617819,0ZM56.8034,45.124c-0.576631,0 -0.980272,-0.362454 -0.980272,-0.864946c0,-0.51073 0.403642,-0.873184 0.980272,-0.873184c0.436592,0 0.856709,0.164752 1.0956,0.494255l0,0.74962c-0.23889,0.329503 -0.659007,0.494255 -1.0956,0.494255Z" style="fill:#565657;fill-rule:nonzero;"/><rect x="59.7525" y="39.9755" width="0.617819" height="5.49447" style="fill:#565657;fill-rule:nonzero;"/><path d="M69.1351,45.47l0,-5.49447l-0.980272,0l-1.71342,4.13527l-1.70518,-4.13527l-0.980272,0l0,5.49447l0.683719,0l0,-4.52243l1.86169,4.52243l0.280078,0l1.86993,-4.52243l0,4.52243l0.683719,0Z" style="fill:#565657;fill-rule:nonzero;"/><path d="M72.1912,45.5689c0.650769,0 1.18621,-0.214177 1.58162,-0.609581l-0.296553,-0.403642c-0.313028,0.321266 -0.774333,0.502493 -1.2274,0.502493c-0.856709,0 -1.38391,-0.626056 -1.43334,-1.37568l3.22089,0l0,-0.156514c0,-1.19445 -0.708432,-2.13353 -1.91112,-2.13353c-1.13679,0 -1.96054,0.930847 -1.96054,2.08411c0,1.24387 0.848471,2.09235 2.02645,2.09235ZM73.4269,43.2294l-2.61131,0c0.0329503,-0.609581 0.453067,-1.32625 1.30154,-1.32625c0.906134,0 1.30154,0.733145 1.30978,1.32625Z" style="fill:#565657;fill-rule:nonzero;"/><path d="M78.5342,45.47l0,-5.49447l-0.617819,0l0,2.11706c-0.321266,-0.436592 -0.807283,-0.700194 -1.34273,-0.700194c-1.04617,0 -1.77108,0.823758 -1.77108,2.09235c0,1.2933 0.733145,2.08411 1.77108,2.08411c0.560156,0 1.04617,-0.288315 1.34273,-0.691957l0,0.593106l0.617819,0ZM76.7219,45.0169c-0.799045,0 -1.27683,-0.650769 -1.27683,-1.53219c0,-0.881421 0.47778,-1.54043 1.27683,-1.54043c0.494255,0 0.972035,0.296553 1.19445,0.642531l0,1.80403c-0.222415,0.345978 -0.700194,0.626056 -1.19445,0.626056Z" style="fill:#565657;fill-rule:nonzero;"/><path d="M80.0746,40.9229c0.230652,0 0.420117,-0.181227 0.420117,-0.411879c0,-0.230652 -0.189464,-0.420117 -0.420117,-0.420117c-0.222415,0 -0.411879,0.189464 -0.411879,0.420117c0,0.230652 0.189464,0.411879 0.411879,0.411879ZM80.3876,45.47l0,-3.97875l-0.617819,0l0,3.97875l0.617819,0Z" style="fill:#565657;fill-rule:nonzero;"/><path d="M84.7288,45.47l0,-2.73488c0,-0.963797 -0.700194,-1.34273 -1.54043,-1.34273c-0.650769,0 -1.1615,0.214177 -1.58985,0.659007l0.288315,0.428354c0.354216,-0.378929 0.741382,-0.551918 1.21916,-0.551918c0.576631,0 1.00499,0.304791 1.00499,0.840233l0,0.71667c-0.321266,-0.370691 -0.774333,-0.54368 -1.31801,-0.54368c-0.675482,0 -1.39215,0.420117 -1.39215,1.30978c0,0.864946 0.71667,1.31801 1.39215,1.31801c0.535443,0 0.98851,-0.189464 1.31801,-0.551918l0,0.453067l0.617819,0ZM83.0154,45.124c-0.576631,0 -0.980272,-0.362454 -0.980272,-0.864946c0,-0.51073 0.403642,-0.873184 0.980272,-0.873184c0.436592,0 0.856709,0.164752 1.0956,0.494255l0,0.74962c-0.23889,0.329503 -0.659007,0.494255 -1.0956,0.494255Z" style="fill:#565657;fill-rule:nonzero;"/><path d="M89.8938,45.5689c1.48276,0 2.02645,-0.815521 2.02645,-1.61457c0,-2.05116 -3.25384,-1.34273 -3.25384,-2.57836c0,-0.518968 0.469542,-0.873184 1.12855,-0.873184c0.601344,0 1.17797,0.20594 1.58985,0.659007l0.411879,-0.502493c-0.461305,-0.486017 -1.11207,-0.766095 -1.95231,-0.766095c-1.07912,0 -1.88641,0.617819 -1.88641,1.52395c0,1.96054 3.25384,1.17797 3.25384,2.59484c0,0.420117 -0.313028,0.947322 -1.2933,0.947322c-0.774333,0 -1.36744,-0.378929 -1.72989,-0.78257l-0.403642,0.518968c0.453067,0.51073 1.15326,0.873184 2.10882,0.873184Z" style="fill:#565657;fill-rule:nonzero;"/><path d="M94.7128,45.5689c0.650769,0 1.18621,-0.214177 1.58162,-0.609581l-0.296553,-0.403642c-0.313028,0.321266 -0.774333,0.502493 -1.2274,0.502493c-0.856709,0 -1.38391,-0.626056 -1.43334,-1.37568l3.22089,0l0,-0.156514c0,-1.19445 -0.708432,-2.13353 -1.91112,-2.13353c-1.13679,0 -1.96054,0.930847 -1.96054,2.08411c0,1.24387 0.848471,2.09235 2.02645,2.09235ZM95.9484,43.2294l-2.61131,0c0.0329503,-0.609581 0.453067,-1.32625 1.30154,-1.32625c0.906134,0 1.30154,0.733145 1.30978,1.32625Z" style="fill:#565657;fill-rule:nonzero;"/><path d="M98.1725,45.47l0,-2.81725c0.181227,-0.321266 0.700194,-0.634294 1.07912,-0.634294c0.098851,0 0.172989,0.00823758 0.247127,0.0247127l0,-0.634294c-0.54368,0 -1.00499,0.304791 -1.32625,0.724907l0,-0.642531l-0.617819,0l0,3.97875l0.617819,0Z" style="fill:#565657;fill-rule:nonzero;"/><path d="M102.011,45.47l1.65575,-3.97875l-0.675482,0l-1.31801,3.26208l-1.32625,-3.26208l-0.667244,0l1.65575,3.97875l0.675482,0Z" style="fill:#565657;fill-rule:nonzero;"/><path d="M104.614,40.9229c0.230652,0 0.420117,-0.181227 0.420117,-0.411879c0,-0.230652 -0.189464,-0.420117 -0.420117,-0.420117c-0.222415,0 -0.411879,0.189464 -0.411879,0.420117c0,0.230652 0.189464,0.411879 0.411879,0.411879ZM104.927,45.47l0,-3.97875l-0.617819,0l0,3.97875l0.617819,0Z" style="fill:#565657;fill-rule:nonzero;"/><path d="M107.918,45.5689c0.724907,0 1.15326,-0.296553 1.45805,-0.691957l-0.411879,-0.378929c-0.263603,0.354216 -0.601344,0.518968 -1.01322,0.518968c-0.848471,0 -1.37568,-0.659007 -1.37568,-1.54043c0,-0.881421 0.527205,-1.53219 1.37568,-1.53219c0.411879,0 0.74962,0.156514 1.01322,0.518968l0.411879,-0.378929c-0.304791,-0.395404 -0.733145,-0.691957 -1.45805,-0.691957c-1.18621,0 -1.98526,0.906134 -1.98526,2.08411c0,1.18621 0.799045,2.09235 1.98526,2.09235Z" style="fill:#565657;fill-rule:nonzero;"/><path d="M112.036,45.5689c0.650769,0 1.18621,-0.214177 1.58162,-0.609581l-0.296553,-0.403642c-0.313028,0.321266 -0.774333,0.502493 -1.2274,0.502493c-0.856709,0 -1.38391,-0.626056 -1.43334,-1.37568l3.22089,0l0,-0.156514c0,-1.19445 -0.708432,-2.13353 -1.91112,-2.13353c-1.13679,0 -1.96054,0.930847 -1.96054,2.08411c0,1.24387 0.848471,2.09235 2.02645,2.09235ZM113.272,43.2294l-2.61131,0c0.0329503,-0.609581 0.453067,-1.32625 1.30154,-1.32625c0.906134,0 1.30154,0.733145 1.30978,1.32625Z" style="fill:#565657;fill-rule:nonzero;"/><path d="M116.139,45.5689c1.0297,0 1.56514,-0.535443 1.56514,-1.20269c0,-1.54867 -2.46304,-0.972035 -2.46304,-1.84522c0,-0.354216 0.337741,-0.626056 0.881421,-0.626056c0.51073,0 0.947322,0.214177 1.18621,0.502493l0.288315,-0.428354c-0.321266,-0.321266 -0.799045,-0.576631 -1.47453,-0.576631c-0.947322,0 -1.48276,0.527205 -1.48276,1.14502c0,1.47453 2.46304,0.881421 2.46304,1.84522c0,0.395404 -0.329503,0.683719 -0.939084,0.683719c-0.54368,0 -1.04617,-0.263603 -1.30978,-0.568393l-0.321266,0.444829c0.403642,0.428354 0.95556,0.626056 1.60633,0.626056Z" style="fill:#565657;fill-rule:nonzero;"/></svg>