<svg xmlns="http://www.w3.org/2000/svg" viewBox="0 0 130 65"><title>logos-Zinknotes-ai-05</title><path d="M73.12,42.38V25.8H89.78V42.38H73.12Z" style="fill:none"/><path d="M75.2,34.09a6.23,6.23,0,0,0,6.25,6.22v2.07l2.78-2.76-2.78-2.76v2.07a4.85,4.85,0,1,1,4-2l1,1a6.24,6.24,0,1,0-11.2-3.79h0Z" style="fill:#5f5f5f"/><path d="M20.11,40.28v-2H10l9.89-13.88V22.62H7.24v2h9.89L7.24,38.46v1.83H20.11Zm4.24-14.62a1.33,1.33,0,0,0,1.34-1.32,1.33,1.33,0,1,0-2.66,0,1.32,1.32,0,0,0,1.32,1.32h0Zm1,14.62V27.49h-2V40.28h2Zm14.53,0v-9c0-2.78-1.4-4.13-4.06-4.13a6.3,6.3,0,0,0-4.53,2.17V27.49h-2V40.28h2V30.93a4.91,4.91,0,0,1,3.77-2c1.71,0,2.85.72,2.85,3v8.37h2Zm15.16,0-5.67-7L55,27.49H52.5l-6.7,6.81V22.62h-2V40.28h2V36.63l2.11-2.09,4.59,5.75H55Zm17,0V22.62H69.82v13.8L59.7,22.62H57.46V40.28h2.19V26.19L69.9,40.28H72ZM94.34,40.6a3.22,3.22,0,0,0,2.37-.82L96.13,38.3a1.9,1.9,0,0,1-1.34.53,1.38,1.38,0,0,1-1.29-1.64V29.24h2.58V27.49H93.5V24h-2v3.5H89.41v1.75h2.11v8.37c0,1.91.95,3,2.82,3h0Zm10.28,0a6.9,6.9,0,0,0,5.06-2l-0.95-1.3A5.55,5.55,0,0,1,104.81,39a4.5,4.5,0,0,1-4.59-4.42h10.31V34c0-3.84-2.27-6.86-6.12-6.86a6.38,6.38,0,0,0-6.27,6.7c0,4,2.72,6.73,6.48,6.73h0Zm4-7.52h-8.36a4.26,4.26,0,0,1,4.17-4.26,4.14,4.14,0,0,1,4.19,4.26h0Zm9.17,7.52c3.3,0,5-1.72,5-3.87,0-5-7.88-3.13-7.88-5.93,0-1.14,1.08-2,2.82-2a5,5,0,0,1,3.8,1.62L122.42,29a6.43,6.43,0,0,0-4.72-1.85c-3,0-4.75,1.7-4.75,3.68,0,4.74,7.88,2.83,7.88,5.93,0,1.27-1.05,2.2-3,2.2a5.76,5.76,0,0,1-4.19-1.83l-1,1.43a6.76,6.76,0,0,0,5.14,2h0Z" style="fill:#5f5f5f"/></svg>