<?xml version="1.0" standalone="no"?><!DOCTYPE svg PUBLIC "-//W3C//DTD SVG 1.1//EN" "http://www.w3.org/Graphics/SVG/1.1/DTD/svg11.dtd"><svg width="100%" height="100%" viewBox="0 0 130 65" version="1.1" xmlns="http://www.w3.org/2000/svg" xmlns:xlink="http://www.w3.org/1999/xlink" xml:space="preserve" style="fill-rule:evenodd;clip-rule:evenodd;stroke-linejoin:round;stroke-miterlimit:1.41421;"><g><path d="M75.185,34.09c0.00546219,3.41391 2.81608,6.22003 6.22999,6.22003c0.00666934,0 0.0133387,-1.07095e-05 0.020008,-3.21284e-05l0,2.07l2.78,-2.76l-2.78,-2.76l0,2.07c-2.63188,-0.0408627 -4.77471,-2.21722 -4.77471,-4.84942c0,-2.66063 2.18937,-4.85 4.85,-4.85c2.66063,0 4.85,2.18937 4.85,4.85c0,1.02349 -0.323981,2.02119 -0.925292,2.84942l1,1c0.830103,-1.08743 1.28,-2.41824 1.28,-3.78629c0,-3.42316 -2.81684,-6.24 -6.24,-6.24c-3.42176,0 -6.23796,2.81453 -6.24,6.23629l-0.05,-0.05Z" style="fill:#565657;fill-rule:nonzero;"/><path d="M20.095,40.28l0,-2l-10.11,0l9.89,-13.88l0,-1.78l-12.65,0l0,2l9.89,0l-9.89,13.84l0,1.83l12.87,0l0,-0.01ZM24.335,25.66c0.00334571,2.52503e-05 0.0066915,3.78756e-05 0.0100373,3.78756e-05c0.725853,0 1.32453,-0.594205 1.32996,-1.32004c0,-0.729616 -0.600384,-1.33 -1.33,-1.33c-0.729616,0 -1.33,0.600384 -1.33,1.33c0,0.724131 0.595869,1.32 1.32,1.32ZM25.335,40.28l0,-12.79l-2,0l0,12.79l2,0ZM39.865,40.28l0,-9c0,-2.78 -1.4,-4.13 -4.06,-4.13c-1.74473,0.0640453 -3.38664,0.850565 -4.53,2.17l0,-1.83l-2,0l0,12.79l2,0l0,-9.35c0.885502,-1.20569 2.27516,-1.94291 3.77,-2c1.71,-3.55271e-15 2.85,0.72 2.85,3l0,8.37l2,0l-0.03,-0.02ZM55.025,40.28l-5.67,-7l5.63,-5.79l-2.5,0l-6.7,6.81l0,-11.68l-2,0l0,17.66l2,0l0,-3.65l2.11,-2.09l4.59,5.75l2.5,0l0.04,-0.01ZM72.025,40.28l0,-17.66l-2.22,0l0,13.8l-10.12,-13.8l-2.24,0l0,17.66l2.19,0l0,-14.09l10.25,14.09l2.14,0ZM94.325,40.6c0.867994,0.0581552 1.72354,-0.237858 2.37,-0.82l-0.58,-1.48c-0.359613,0.345638 -0.841252,0.536137 -1.34,0.53c-0.731729,-0.0344992 -1.31501,-0.645927 -1.31501,-1.37847c0,-0.0877739 0.0083742,-0.175348 0.0250087,-0.261531l1.42109e-14,-7.95l2.58,0l0,-1.75l-2.58,0l0,-3.49l-2,0l0,3.5l-2.09,0l0,1.75l2.11,0l0,8.37c0,1.91 0.95,3 2.82,3l1.42109e-14,-0.02ZM104.605,40.6c1.88859,0.0545235 3.71906,-0.668983 5.06,-2l-0.95,-1.3c-1.02703,1.06667 -2.43941,1.67918 -3.92,1.7c-0.0302278,0.000609349 -0.060461,0.000914047 -0.090695,0.000914047c-2.43877,0 -4.45644,-1.98253 -4.4993,-4.42091l10.31,0l0,-0.58c0,-3.84 -2.27,-6.86 -6.12,-6.86c-3.46103,0.0553016 -6.27807,2.91771 -6.27807,6.37919c0,0.106989 0.00269121,0.213961 0.00807108,0.320814c0,4 2.72,6.73 6.48,6.73l0,0.03ZM108.605,33.08l-8.36,0c-0.000514095,-2.30335 1.86716,-4.21134 4.17,-4.26c0.0172488,-0.000215622 0.0344988,-0.000323436 0.0517489,-0.000323436c2.27114,0 4.14,1.86886 4.14,4.14c0,0.0401142 -0.000583024,0.0802262 -0.00174889,0.120323l-1.42109e-14,7.10543e-15ZM117.775,40.6c3.3,0 5,-1.72 5,-3.87c0,-5 -7.88,-3.13 -7.88,-5.93c0,-1.14 1.08,-2 2.82,-2c1.44019,-0.0329295 2.82656,0.558101 3.8,1.62l0.89,-1.42c-1.25304,-1.23651 -2.96047,-1.90574 -4.72,-1.85c-3,0 -4.75,1.7 -4.75,3.68c0,4.74 7.88,2.83 7.88,5.93c0,1.27 -1.05,2.2 -3,2.2c-1.58861,-0.00580762 -3.10611,-0.668579 -4.19,-1.83l-1,1.43c1.35041,1.36639 3.22122,2.09433 5.14,2l0.01,0.04Z" style="fill:#565657;fill-rule:nonzero;"/></g></svg>