<?xml version="1.0" standalone="no"?><!DOCTYPE svg PUBLIC "-//W3C//DTD SVG 1.1//EN" "http://www.w3.org/Graphics/SVG/1.1/DTD/svg11.dtd"><svg width="100%" height="100%" viewBox="0 0 130 65" version="1.1" xmlns="http://www.w3.org/2000/svg" xmlns:xlink="http://www.w3.org/1999/xlink" xml:space="preserve" style="fill-rule:evenodd;clip-rule:evenodd;stroke-linejoin:round;stroke-miterlimit:1.41421;"><g><clipPath id="tag1"><path d="M23.2063,18.7533c-0.439478,-2.49242 1.22717,-4.86958 3.71727,-5.30866l67.3393,-11.8738c2.49249,-0.439495 4.86944,1.22561 5.30876,3.71715l7.22215,40.9588c0.43946,2.49241 -1.22716,4.8696 -3.71729,5.30866l-67.3393,11.8737c-2.49247,0.43949 -4.86944,-1.2256 -5.30876,-3.71713l-7.22214,-40.9588Z"/></clipPath><g clip-path="url(#tag1)"><path d="M20.3689,12.8108l79.8365,-14.0773l9.42568,53.4557l-79.8365,14.0773l-9.42569,-53.4558Z" style="fill:#eb1c24;fill-rule:nonzero;"/></g><clipPath id="tag2"><path d="M26.5331,27.4718l72.8942,-12.8532l5.26372,29.8519l-72.8942,12.8532l-5.2637,-29.8519Z"/></clipPath><g clip-path="url(#tag2)"><path d="M24.4915,26.0423l76.3653,-13.4653l5.87575,33.3231l-76.3653,13.4653l-5.87575,-33.3231Z" style="fill:#fff;fill-rule:nonzero;"/></g><path d="M50.9385,46.9883c-0.0168928,-0.0958038 -0.143647,-0.394497 -0.332361,-0.904525c-1.85764,-4.51279 -4.57178,-9.54133 -8.15088,-15.1335c-0.640889,-0.973601 -1.16914,-1.44846 -1.60026,-1.37244c-0.335313,0.0591248 -0.617172,0.701519 -0.849798,1.90323c-1.01925,4.72371 -1.59038,8.62754 -1.74155,11.6918c-1.12853,0.322468 -1.85412,0.549191 -2.18098,0.656218c-0.581881,0.201384 -0.82706,0.491572 -0.751043,0.922689c0.084464,0.479019 0.361982,0.652346 0.888903,0.559435c0.773489,-0.235169 1.44695,-0.477397 2.00488,-0.674557c-0.0127865,0.767819 -0.0114568,1.33558 -0.000233865,1.67934c0.0139994,0.639618 0.0266105,1.13131 0.0420566,1.49902c0.152035,0.862234 0.519687,1.26662 1.14241,1.15682c0.311362,-0.0549016 0.517086,-0.288741 0.593221,-0.697296c-0.102803,-0.302916 -0.177433,-0.586104 -0.223888,-0.849565c-0.11825,-0.670627 -0.184316,-1.74558 -0.14185,-3.18542c1.50752,-0.41399 2.66423,-0.716731 3.50251,-0.864543c1.72447,-0.30407 3.24321,-0.374301 4.57596,-0.238866c0.485902,1.07502 0.873223,1.87107 1.11829,2.42055c-0.0465137,0.156375 -0.0493486,0.280353 -0.0324558,0.376157c0.042232,0.23951 0.229558,0.601609 0.614103,1.1018c0.336643,0.50864 0.626831,0.753819 0.818439,0.720034c0.526921,-0.0929104 0.776324,-0.359147 0.704529,-0.766313ZM47.0099,41.6553c-1.45956,-0.0142917 -2.77825,0.0700553 -3.9758,0.281215c-0.646676,0.114026 -1.7597,0.38437 -3.33908,0.81103c0.254094,-3.60097 0.775871,-7.22445 1.58084,-10.9226c1.10996,1.53298 2.38468,3.58021 3.80021,6.14591c0.590152,1.10603 1.24932,2.32336 1.93383,3.6844Z" style="fill:#2b3750;fill-rule:nonzero;"/><path d="M54.1208,28.6216c-0.0506784,-0.287411 -0.301411,-0.588939 -0.7198,-0.860904c-0.44234,-0.267742 -0.759314,-0.38472 -0.998823,-0.342488c-0.191608,0.0337856 -0.2818,0.222558 -0.322702,0.550813c-0.433032,3.70661 -0.357423,7.07658 0.178923,10.1183c0.274508,1.55681 0.522288,2.82199 0.78702,3.76313c-0.101474,0.264849 -0.122648,0.56493 -0.0593002,0.924194c0.0168928,0.0958038 0.063348,0.359264 0.16754,0.810109c0.084464,0.479019 0.15487,0.738256 0.171763,0.83406c0.063348,0.359264 0.283071,0.765042 0.707072,1.20889c0.428224,0.467796 0.814215,0.696083 1.14953,0.636958c0.23951,-0.042232 0.338148,-0.183103 0.295916,-0.422612c-0.577365,-1.87384 -1.10394,-4.29995 -1.62339,-7.24592c-0.215383,-1.2215 -0.385641,-2.7473 -0.458648,-4.5619c-0.0997931,-1.6864 -0.0967828,-3.06989 -0.0149199,-4.14623l0.142317,-0.173268c0.460738,-0.328197 0.665074,-0.709965 0.597502,-1.09318Z" style="fill:#2b3750;fill-rule:nonzero;"/><path d="M66.6842,33.7657c-0.0929104,-0.526921 -0.431,-0.763654 -0.957921,-0.670744c-0.455068,0.0802408 -0.635453,0.457786 -0.545377,1.10868c-2.06303,3.42602 -3.50466,6.17448 -4.3404,8.29749c-0.615433,-1.66957 -1.15762,-3.20387 -1.60262,-4.60715c-0.226723,-0.725587 -0.436553,-1.35537 -0.60554,-1.89357c-0.259179,-0.34943 -0.512746,-0.526979 -0.800158,-0.476301c-0.167657,0.0295624 -0.322644,0.130978 -0.44101,0.300023c-0.118367,0.169045 -0.156434,0.373322 -0.122648,0.56493c0.0337856,0.191608 0.277401,1.013 0.722401,2.41627c0.708343,2.19649 1.38857,3.95341 2.06041,5.2426c0.350701,0.728422 0.757809,1.07646 1.21288,0.996222c0.287411,-0.0506784 0.535426,-0.464844 0.772217,-1.22277c0.659638,-2.14135 1.83214,-4.5954 3.56963,-7.34663c0.421341,-0.691684 0.693306,-1.11007 0.763771,-1.27067c0.2748,-0.542367 0.39039,-1.00727 0.314373,-1.43839Z" style="fill:#2b3750;fill-rule:nonzero;"/><path d="M76.9741,35.6803c-0.0295624,-0.167657 -0.163375,-0.366322 -0.397215,-0.572046c-0.10558,-0.598774 -0.298517,-1.13275 -0.574589,-1.57799c0.0183395,-0.176103 0.0211745,-0.300081 0.0127281,-0.347983c-0.0464552,-0.26346 -0.232393,-0.477631 -0.509911,-0.650957c-0.297246,-0.145152 -0.581822,-0.218452 -0.821332,-0.17622c-1.10174,0.194267 -2.29235,1.14507 -3.61972,2.86086c-0.418506,0.567706 -0.710199,1.01427 -0.859575,1.28756c-0.786334,1.42282 -1.06264,2.65693 -0.868372,3.75868c0.122473,0.694578 0.447835,1.27929 0.995813,1.72597c0.564871,0.542484 1.16642,0.732762 1.8131,0.618735c1.2215,-0.215383 2.35153,-1.22959 3.3901,-3.04263c0.252062,0.869292 0.437941,1.5033 0.557638,1.90202c0.206995,0.753761 0.54225,1.11447 1.02127,1.03001c0.50297,-0.0886872 0.724198,-0.374652 0.643958,-0.82972c-0.0084464,-0.0479019 -0.167598,-0.390273 -0.438,-1.08346c-0.163375,-0.366322 -0.25912,-0.769265 -0.330915,-1.17643c-0.194267,-1.10174 -0.216654,-2.2091 -0.0347646,-3.27839c0.0141163,-0.200054 0.036679,-0.352206 0.0197862,-0.44801ZM75.1793,35.3053c0.185821,1.05384 -0.103154,2.2161 -0.810577,3.52623c-0.707423,1.31013 -1.49647,2.01726 -2.40661,2.17774c-0.670627,0.11825 -1.05378,-0.234015 -1.2016,-1.0723c-0.139366,-0.790381 0.170725,-1.83288 0.978175,-3.13595c0.302974,-0.522639 0.725704,-1.06639 1.26819,-1.63127c0.581939,-0.62122 1.03845,-0.973367 1.34982,-1.02827c0.383215,-0.0675712 0.674791,0.325537 0.822603,1.16382Z" style="fill:#2b3750;fill-rule:nonzero;"/><path d="M87.3255,30.941c-0.0704061,-0.259237 -0.212665,-0.505805 -0.446505,-0.711529c-0.281741,-0.197278 -0.542367,-0.2748 -0.781876,-0.232568c-0.958038,0.168928 -1.82878,0.692897 -2.61222,1.57191c-0.827119,0.911407 -1.40912,1.95246 -1.7939,3.13161c-0.180268,-0.462126 -0.442223,-1.10741 -0.794312,-1.98376c-0.343643,-0.828449 -0.783148,-1.22017 -1.31007,-1.12726c-0.119755,0.021116 -0.198666,0.133813 -0.260684,0.342313c-0.0859692,0.212724 -0.104309,0.388827 -0.0789695,0.532532c0.0675712,0.383215 0.208383,0.90169 0.442165,1.52725c0.107027,0.326867 0.309857,0.636841 0.647947,0.873574c0.266178,0.669238 0.484455,1.34692 0.606928,2.0415c0.109803,0.622725 0.1562,1.30602 0.163141,2.04567c-0.0141748,0.61989 -0.0381842,1.04395 -0.0438541,1.2919c0.0591248,0.335313 0.201384,0.581881 0.44367,0.835507c0.242286,0.253626 0.487407,0.383274 0.750867,0.336818c0.311362,-0.0549016 0.431234,-0.915689 0.363838,-2.55841c-0.157354,-3.13329 0.73757,-5.34083 2.62842,-6.66206c0.304304,0.0451254 0.456456,0.0676881 0.504358,0.0592417c0.23951,-0.042232 0.533979,-0.192937 0.931311,-0.460563c0.464961,-0.304246 0.68619,-0.59021 0.639734,-0.853671Z" style="fill:#2b3750;fill-rule:nonzero;"/><path d="M96.0982,32.654c-0.156258,-0.886185 -0.567531,-1.67801 -1.20564,-2.35576c-0.662063,-0.67352 -1.4256,-1.08219 -2.29483,-1.24996c-0.304304,-0.0451254 -0.504358,-0.0592417 -0.55226,-0.0507953c-0.119755,0.021116 -0.235286,0.0661829 -0.326867,0.107027c-0.149376,0.273295 -0.422729,0.543755 -0.815837,0.835331c-0.738315,0.574706 -1.25829,1.40726 -1.57967,2.52584c-0.310091,1.0425 -0.376449,2.06672 -0.203298,3.04871c0.190044,1.07779 0.64216,1.9612 1.3803,2.646c0.783206,0.800333 1.67356,1.08786 2.6795,0.910487c0.622725,-0.109803 1.19477,-0.507018 1.77249,-1.15219c0.577716,-0.64517 0.907477,-1.29601 1.03296,-1.98492c0.0761345,-0.408554 0.12126,-0.712859 0.159327,-0.917136c0.13393,-0.641006 0.118542,-1.42855 -0.0461629,-2.36264ZM94.7724,33.2582c0.139366,0.790381 0.0194939,1.65117 -0.359615,2.58236c-0.414341,1.01149 -0.908923,1.56792 -1.53165,1.67772c-0.574823,0.101357 -1.07212,-0.0579119 -1.5243,-0.521485c-0.443728,-0.415671 -0.716965,-0.984882 -0.847884,-1.72736c-0.164705,-0.934087 -0.120909,-1.80616 0.159561,-2.59648c0.33543,-0.898796 0.906088,-1.44394 1.73593,-1.63965c0.264849,0.101474 0.617055,0.138153 1.00027,0.0705815c0.698742,0.321314 1.1692,1.02862 1.36769,2.15431Z" style="fill:#2b3750;fill-rule:nonzero;"/></g></svg>