<?xml version="1.0" standalone="no"?><!DOCTYPE svg PUBLIC "-//W3C//DTD SVG 1.1//EN" "http://www.w3.org/Graphics/SVG/1.1/DTD/svg11.dtd"><svg width="100%" height="100%" viewBox="0 0 245 66" version="1.1" xmlns="http://www.w3.org/2000/svg" xmlns:xlink="http://www.w3.org/1999/xlink" xml:space="preserve" style="fill-rule:evenodd;clip-rule:evenodd;stroke-linejoin:round;stroke-miterlimit:1.41421;"><g id="Layer1"><g><path d="M85.762,32.5l0,-4.223l-12.054,0l0,-23.124l-4.797,0l0,27.347l16.851,0Z" style="fill:#fff;fill-rule:nonzero;"/><rect x="90.408" y="5.153" width="4.797" height="27.347" style="fill:#fff;fill-rule:nonzero;"/><path d="M114.078,32.992c8.2,0 13.981,-5.986 13.981,-14.145c0,-8.159 -5.781,-14.145 -13.981,-14.145c-8.2,0 -13.981,5.986 -13.981,14.145c0,8.159 5.781,14.145 13.981,14.145ZM114.078,28.728c-5.535,0 -9.061,-4.264 -9.061,-9.881c0,-5.658 3.526,-9.881 9.061,-9.881c5.494,0 9.061,4.223 9.061,9.881c0,5.617 -3.567,9.881 -9.061,9.881Z" style="fill:#fff;fill-rule:nonzero;"/><path d="M156.69,32.5l0,-27.347l-4.797,0l0,18.983l-13.981,-18.983l-4.92,0l0,27.347l4.797,0l0,-19.516l14.268,19.516l4.633,0Z" style="fill:#fff;fill-rule:nonzero;"/><path d="M176.629,32.5c5.125,0 7.954,-3.157 7.954,-7.38c0,-3.362 -2.378,-6.273 -5.289,-6.724c2.542,-0.533 4.756,-2.829 4.756,-6.273c0,-3.854 -2.788,-6.97 -7.79,-6.97l-13.448,0l0,27.347l13.817,0ZM175.276,16.469l-7.667,0l0,-7.093l7.667,0c2.46,0 3.854,1.517 3.854,3.567c0,2.05 -1.394,3.526 -3.854,3.526ZM175.481,28.277l-7.872,0l0,-7.585l7.872,0c2.747,0 4.182,1.722 4.182,3.772c0,2.378 -1.558,3.813 -4.182,3.813Z" style="fill:#fff;fill-rule:nonzero;"/><path d="M202.431,32.992c8.2,0 13.981,-5.986 13.981,-14.145c0,-8.159 -5.781,-14.145 -13.981,-14.145c-8.2,0 -13.981,5.986 -13.981,14.145c0,8.159 5.781,14.145 13.981,14.145ZM202.431,28.728c-5.535,0 -9.061,-4.264 -9.061,-9.881c0,-5.658 3.526,-9.881 9.061,-9.881c5.494,0 9.061,4.223 9.061,9.881c0,5.617 -3.567,9.881 -9.061,9.881Z" style="fill:#fff;fill-rule:nonzero;"/><path d="M244.071,32.5l-10.209,-14.063l9.594,-13.284l-5.781,0l-7.011,10.045l-7.052,-10.045l-5.74,0l9.635,13.325l-10.25,14.022l5.74,0l7.667,-10.701l7.667,10.701l5.74,0Z" style="fill:#fff;fill-rule:nonzero;"/><path d="M72.7146,56.5c3.519,0 5.729,-2.516 5.729,-5.661c0,-3.111 -2.21,-5.678 -5.729,-5.678l-3.621,0l0,11.339l3.621,0ZM72.7146,55.616l-2.652,0l0,-9.571l2.652,0c3.009,0 4.709,2.142 4.709,4.794c0,2.652 -1.717,4.777 -4.709,4.777Z" style="fill:#fff;fill-rule:nonzero;"/><path d="M81.8656,46.997c0.374,0 0.68,-0.306 0.68,-0.68c0,-0.374 -0.306,-0.663 -0.68,-0.663c-0.357,0 -0.68,0.289 -0.68,0.663c0,0.374 0.323,0.68 0.68,0.68ZM82.3076,56.5l0,-8.211l-0.884,0l0,8.211l0.884,0Z" style="fill:#fff;fill-rule:nonzero;"/><path d="M88.9256,59.832c1.989,0 3.689,-0.901 3.689,-3.4l0,-8.143l-0.901,0l0,1.326c-0.663,-0.935 -1.683,-1.53 -2.856,-1.53c-2.176,0 -3.655,1.7 -3.655,4.301c0,2.635 1.479,4.284 3.655,4.284c1.224,0 2.278,-0.697 2.856,-1.547l0,1.309c0,1.853 -1.309,2.601 -2.788,2.601c-1.241,0 -2.023,-0.306 -2.737,-1.156l-0.51,0.714c0.969,0.986 1.853,1.241 3.247,1.241ZM89.0106,55.871c-1.819,0 -2.873,-1.496 -2.873,-3.485c0,-1.989 1.054,-3.502 2.873,-3.502c1.139,0 2.227,0.697 2.703,1.496l0,3.995c-0.476,0.799 -1.564,1.496 -2.703,1.496Z" style="fill:#fff;fill-rule:nonzero;"/><path d="M96.3936,46.997c0.374,0 0.68,-0.306 0.68,-0.68c0,-0.374 -0.306,-0.663 -0.68,-0.663c-0.357,0 -0.68,0.289 -0.68,0.663c0,0.374 0.323,0.68 0.68,0.68ZM96.8356,56.5l0,-8.211l-0.884,0l0,8.211l0.884,0Z" style="fill:#fff;fill-rule:nonzero;"/><path d="M101.975,56.704c0.68,0 1.071,-0.204 1.394,-0.51l-0.34,-0.68c-0.187,0.204 -0.527,0.391 -0.918,0.391c-0.578,0 -0.85,-0.459 -0.85,-1.122l0,-5.712l1.666,0l0,-0.782l-1.666,0l0,-2.244l-0.901,0l0,2.244l-1.36,0l0,0.782l1.36,0l0,5.848c0,1.122 0.527,1.785 1.615,1.785Z" style="fill:#fff;fill-rule:nonzero;"/><path d="M111.568,56.5l0,-5.78c0,-1.836 -1.326,-2.635 -2.992,-2.635c-1.36,0 -2.312,0.459 -3.162,1.377l0.493,0.612c0.748,-0.85 1.547,-1.207 2.584,-1.207c1.207,0 2.193,0.663 2.193,1.887l0,1.666c-0.714,-0.799 -1.649,-1.173 -2.788,-1.173c-1.428,0 -2.873,0.935 -2.873,2.72c0,1.768 1.462,2.737 2.873,2.737c1.139,0 2.057,-0.374 2.788,-1.173l0,0.969l0.884,0ZM108.202,56.007c-1.343,0 -2.244,-0.867 -2.244,-2.023c0,-1.173 0.901,-2.04 2.244,-2.04c0.986,0 1.904,0.374 2.482,1.139l0,1.802c-0.578,0.748 -1.496,1.122 -2.482,1.122Z" style="fill:#fff;fill-rule:nonzero;"/><rect x="114.922" y="45.161" width="0.884" height="11.339" style="fill:#fff;fill-rule:nonzero;"/><path d="M134.821,56.5l0,-11.339l-1.462,0l-3.842,9.435l-3.859,-9.435l-1.445,0l0,11.339l0.969,0l0,-10.115l4.148,10.115l0.374,0l4.131,-10.115l0,10.115l0.986,0Z" style="fill:#fff;fill-rule:nonzero;"/><path d="M141.847,56.704c1.36,0 2.397,-0.476 3.213,-1.326l-0.459,-0.578c-0.697,0.748 -1.649,1.139 -2.686,1.139c-1.938,0 -3.128,-1.479 -3.213,-3.264l6.868,0l0,-0.238c0,-2.38 -1.377,-4.352 -3.876,-4.352c-2.278,0 -3.944,1.921 -3.944,4.301c0,2.533 1.7,4.318 4.097,4.318ZM144.669,51.978l-5.967,0c0.068,-1.428 1.037,-3.128 2.975,-3.128c2.057,0 2.975,1.734 2.992,3.128Z" style="fill:#fff;fill-rule:nonzero;"/><path d="M155.401,56.5l0,-11.339l-0.901,0l0,4.454c-0.646,-0.935 -1.683,-1.53 -2.856,-1.53c-2.176,0 -3.655,1.717 -3.655,4.318c0,2.635 1.479,4.301 3.655,4.301c1.224,0 2.278,-0.663 2.856,-1.513l0,1.309l0.901,0ZM151.797,55.905c-1.819,0 -2.873,-1.513 -2.873,-3.502c0,-1.989 1.054,-3.519 2.873,-3.519c1.156,0 2.227,0.697 2.703,1.496l0,4.063c-0.476,0.782 -1.547,1.462 -2.703,1.462Z" style="fill:#fff;fill-rule:nonzero;"/><path d="M159.197,46.997c0.374,0 0.68,-0.306 0.68,-0.68c0,-0.374 -0.306,-0.663 -0.68,-0.663c-0.357,0 -0.68,0.289 -0.68,0.663c0,0.374 0.323,0.68 0.68,0.68ZM159.639,56.5l0,-8.211l-0.884,0l0,8.211l0.884,0Z" style="fill:#fff;fill-rule:nonzero;"/><path d="M169.096,56.5l0,-5.78c0,-1.836 -1.326,-2.635 -2.992,-2.635c-1.36,0 -2.312,0.459 -3.162,1.377l0.493,0.612c0.748,-0.85 1.547,-1.207 2.584,-1.207c1.207,0 2.193,0.663 2.193,1.887l0,1.666c-0.714,-0.799 -1.649,-1.173 -2.788,-1.173c-1.428,0 -2.873,0.935 -2.873,2.72c0,1.768 1.462,2.737 2.873,2.737c1.139,0 2.057,-0.374 2.788,-1.173l0,0.969l0.884,0ZM165.73,56.007c-1.343,0 -2.244,-0.867 -2.244,-2.023c0,-1.173 0.901,-2.04 2.244,-2.04c0.986,0 1.904,0.374 2.482,1.139l0,1.802c-0.578,0.748 -1.496,1.122 -2.482,1.122Z" style="fill:#fff;fill-rule:nonzero;"/><path d="M181.022,56.704c3.06,0 4.029,-1.751 4.029,-3.213c0,-4.233 -6.8,-2.635 -6.8,-5.542c0,-1.224 1.139,-2.091 2.652,-2.091c1.275,0 2.431,0.442 3.247,1.428l0.646,-0.714c-0.867,-1.003 -2.159,-1.598 -3.842,-1.598c-2.057,0 -3.723,1.173 -3.723,3.026c0,3.961 6.8,2.227 6.8,5.559c0,0.969 -0.663,2.261 -2.975,2.261c-1.632,0 -2.822,-0.816 -3.553,-1.649l-0.629,0.731c0.867,1.037 2.278,1.802 4.148,1.802Z" style="fill:#fff;fill-rule:nonzero;"/><path d="M191.584,56.704c1.36,0 2.397,-0.476 3.213,-1.326l-0.459,-0.578c-0.697,0.748 -1.649,1.139 -2.686,1.139c-1.938,0 -3.128,-1.479 -3.213,-3.264l6.868,0l0,-0.238c0,-2.38 -1.377,-4.352 -3.876,-4.352c-2.278,0 -3.944,1.921 -3.944,4.301c0,2.533 1.7,4.318 4.097,4.318ZM194.406,51.978l-5.967,0c0.068,-1.428 1.037,-3.128 2.975,-3.128c2.057,0 2.975,1.734 2.992,3.128Z" style="fill:#fff;fill-rule:nonzero;"/><path d="M199.069,56.5l0,-5.984c0.374,-0.714 1.496,-1.462 2.329,-1.462c0.17,0 0.289,0 0.442,0.034l0,-0.969c-1.139,0 -2.074,0.663 -2.771,1.581l0,-1.411l-0.884,0l0,8.211l0.884,0Z" style="fill:#fff;fill-rule:nonzero;"/><path d="M207.387,56.5l3.468,-8.211l-1.003,0l-2.958,7.174l-2.992,-7.174l-0.986,0l3.468,8.211l1.003,0Z" style="fill:#fff;fill-rule:nonzero;"/><path d="M213.393,46.997c0.374,0 0.68,-0.306 0.68,-0.68c0,-0.374 -0.306,-0.663 -0.68,-0.663c-0.357,0 -0.68,0.289 -0.68,0.663c0,0.374 0.323,0.68 0.68,0.68ZM213.835,56.5l0,-8.211l-0.884,0l0,8.211l0.884,0Z" style="fill:#fff;fill-rule:nonzero;"/><path d="M220.708,56.704c1.428,0 2.244,-0.561 2.907,-1.411l-0.612,-0.544c-0.595,0.816 -1.343,1.156 -2.244,1.156c-1.921,0 -3.094,-1.547 -3.094,-3.519c0,-1.972 1.173,-3.502 3.094,-3.502c0.901,0 1.649,0.323 2.244,1.139l0.612,-0.544c-0.663,-0.833 -1.479,-1.394 -2.907,-1.394c-2.414,0 -3.978,1.904 -3.978,4.301c0,2.397 1.564,4.318 3.978,4.318Z" style="fill:#fff;fill-rule:nonzero;"/><path d="M229.825,56.704c1.36,0 2.397,-0.476 3.213,-1.326l-0.459,-0.578c-0.697,0.748 -1.649,1.139 -2.686,1.139c-1.938,0 -3.128,-1.479 -3.213,-3.264l6.868,0l0,-0.238c0,-2.38 -1.377,-4.352 -3.876,-4.352c-2.278,0 -3.944,1.921 -3.944,4.301c0,2.533 1.7,4.318 4.097,4.318ZM232.647,51.978l-5.967,0c0.068,-1.428 1.037,-3.128 2.975,-3.128c2.057,0 2.975,1.734 2.992,3.128Z" style="fill:#fff;fill-rule:nonzero;"/><path d="M238.874,56.704c2.057,0 3.077,-1.088 3.077,-2.414c0,-3.162 -5.168,-1.904 -5.168,-3.961c0,-0.85 0.765,-1.496 2.04,-1.496c1.088,0 1.972,0.442 2.448,1.088l0.493,-0.629c-0.595,-0.663 -1.53,-1.207 -2.941,-1.207c-1.853,0 -2.924,1.02 -2.924,2.278c0,2.958 5.185,1.683 5.185,3.927c0,0.952 -0.816,1.666 -2.193,1.666c-1.156,0 -2.125,-0.544 -2.652,-1.207l-0.527,0.646c0.816,0.918 1.836,1.309 3.162,1.309Z" style="fill:#fff;fill-rule:nonzero;"/></g><clipPath id="tag1"><path d="M34.8044,21.6914l6.51095,6.51095l-6.50889,6.50888l-6.51094,-6.51094l6.50888,-6.50889Z"/></clipPath><g clip-path="url(#tag1)"><path d="M34.8044,14.6203l13.582,13.582l-13.58,13.58l-13.582,-13.582l13.5799,-13.5799Z" style="fill:#f5a623;fill-rule:nonzero;"/></g><clipPath id="tag2"><path d="M29.2316,57.2982l-28.5025,-28.5025l28.4935,-28.4935l28.5025,28.5025l-28.4935,28.4935ZM29.2303,49.4023l20.5988,-20.5988l-20.6053,-20.6053l-20.5988,20.5988l20.6053,20.6053Z"/></clipPath><g clip-path="url(#tag2)"><path d="M29.2226,-6.76891l35.5736,35.5736l-35.5646,35.5646l-35.5736,-35.5736l35.5646,-35.5646Z" style="fill:#fff;fill-rule:nonzero;"/></g></g></svg>