<?xml version="1.0" standalone="no"?><!DOCTYPE svg PUBLIC "-//W3C//DTD SVG 1.1//EN" "http://www.w3.org/Graphics/SVG/1.1/DTD/svg11.dtd"><svg width="100%" height="100%" viewBox="0 0 130 65" version="1.1" xmlns="http://www.w3.org/2000/svg" xmlns:xlink="http://www.w3.org/1999/xlink" xml:space="preserve" style="fill-rule:evenodd;clip-rule:evenodd;stroke-linejoin:round;stroke-miterlimit:1.41421;"><g transform="matrix(2.39499,0,0,2.39499,-88.9306,-33.058)"><path d="M45.6888,22.0673c-0.492188,0 -1.3418,0.0234375 -1.92773,0.0351562c-0.140625,0 -0.287109,0.00585938 -0.427734,0.00585938c-0.638672,0 -1.26562,-0.0234375 -1.64062,-0.0410156l0,0.240234c0.720703,0.0351562 0.855469,0.158203 0.855469,1.03125l0,5.95312c0,0.873047 -0.123047,0.996094 -0.855469,1.03125l0,0.240234c0.457031,-0.0234375 1.2832,-0.0351562 2.0918,-0.0351562c0.550781,0 1.41211,0.0351562 1.79883,0.0351562c3.19336,0 5.0625,-1.72852 5.0625,-4.3418c0,-2.67773 -1.59375,-4.1543 -4.95703,-4.1543ZM45.8705,22.2841c1.57031,0 2.25586,1.29492 2.25586,3.98438c0,2.61328 -0.609375,4.07812 -2.24414,4.07812c-0.744141,0 -0.902344,-0.193359 -0.902344,-1.03125l0,-6c0,-0.826172 0.158203,-1.03125 0.890625,-1.03125Z" style="fill:#0055fd;fill-rule:nonzero;"/><path d="M54.2611,24.165c-0.837891,0 -1.42969,0.134766 -1.92188,0.386719c-0.427734,0.228516 -0.744141,0.597656 -0.744141,1.10156c0,0.591797 0.386719,1.04883 0.984375,1.04883c0.697266,0 1.1543,-0.445312 1.1543,-1.00781c0,-0.544922 -0.287109,-0.890625 -0.802734,-1.08398c0.175781,-0.117188 0.427734,-0.205078 0.632812,-0.205078c0.767578,0 0.890625,0.615234 0.890625,0.984375l0,1.07227c0,0.539062 -0.732422,0.779297 -1.66992,1.11328c-1.05469,0.345703 -1.52344,0.878906 -1.52344,1.69336c0,0.826172 0.550781,1.37695 1.51172,1.37695c0.744141,0 1.38281,-0.357422 1.7168,-0.908203c0.0117188,0.480469 0.333984,0.908203 1.23633,0.908203c0.685547,0 1.17773,-0.117188 1.55859,-0.439453l-0.117188,-0.205078c-0.111328,0.0820312 -0.228516,0.175781 -0.375,0.175781c-0.128906,0 -0.181641,-0.128906 -0.181641,-0.515625l0,-3.21094c0,-0.832031 -0.0585938,-1.33594 -0.392578,-1.68164c-0.457031,-0.480469 -1.11914,-0.603516 -1.95703,-0.603516ZM54.4545,29.4853c-0.146484,0.152344 -0.275391,0.199219 -0.445312,0.199219c-0.345703,0 -0.609375,-0.222656 -0.609375,-0.849609c0,-0.585938 0.228516,-1.00781 0.585938,-1.35352c0.169922,-0.169922 0.369141,-0.363281 0.46875,-0.527344l0,2.53125Z" style="fill:#0055fd;fill-rule:nonzero;"/><path d="M59.3002,21.1767c-0.84375,0 -1.30664,0.351562 -1.30664,1.03711c0,0.679688 0.462891,1.03125 1.30664,1.03125c0.826172,0 1.30664,-0.351562 1.30664,-1.03125c0,-0.685547 -0.480469,-1.03711 -1.30664,-1.03711ZM60.4486,24.206c-0.597656,0.117188 -1.2832,0.164062 -2.08594,0.164062c-0.240234,0 -0.492188,-0.0117188 -0.744141,-0.0351562l0,0.251953c0.503906,0 0.673828,0.333984 0.673828,1.05469l0,3.80859c0,0.667969 -0.181641,0.861328 -0.673828,0.861328l0,0.251953c0.345703,-0.0117188 1.13086,-0.046875 1.79883,-0.046875c0.673828,0 1.38281,0.0351562 1.70508,0.046875l0,-0.251953c-0.492188,0 -0.673828,-0.193359 -0.673828,-0.861328l0,-5.24414Z" style="fill:#0055fd;fill-rule:nonzero;"/><path d="M64.3744,21.1767c-0.597656,0.123047 -1.2832,0.169922 -2.08594,0.169922c-0.240234,0 -0.492188,-0.0117188 -0.744141,-0.0351562l0,0.251953c0.503906,0 0.673828,0.333984 0.673828,1.05469l0,6.83203c0,0.667969 -0.181641,0.861328 -0.673828,0.861328l0,0.251953c0.345703,-0.0117188 1.125,-0.046875 1.79883,-0.046875c0.673828,0 1.38281,0.0351562 1.70508,0.046875l0,-0.251953c-0.492188,0 -0.673828,-0.193359 -0.673828,-0.861328l0,-8.27344Z" style="fill:#0055fd;fill-rule:nonzero;"/><path d="M70.6439,24.3818c-0.292969,0 -0.925781,-0.0117188 -1.26562,-0.046875l0,0.251953c0.498047,0.0351562 0.878906,0.421875 0.878906,1.20703c0,0.333984 -0.0644531,0.744141 -0.228516,1.23047l-0.498047,1.53516l-1.48242,-3.51562c-0.0351562,-0.0761719 -0.046875,-0.134766 -0.046875,-0.1875c0,-0.263672 0.357422,-0.269531 0.720703,-0.269531l0,-0.251953c-0.480469,0.0351562 -0.996094,0.0703125 -1.74023,0.0703125c-0.603516,0 -1.31836,-0.0234375 -1.95703,-0.0703125l0,0.251953c0.169922,0 0.421875,0.0585938 0.697266,0.673828l2.80078,6.1875l-0.0644531,0.193359c-0.216797,0.662109 -0.626953,0.960938 -1.14258,0.960938c-0.09375,0 -0.287109,0 -0.404297,-0.0234375c0.539062,-0.169922 0.779297,-0.574219 0.779297,-0.925781c0,-0.585938 -0.421875,-0.884766 -1.08398,-0.884766c-0.703125,0 -1.17188,0.357422 -1.17188,0.925781c0,0.837891 0.972656,1.125 1.62891,1.125c0.591797,0 0.902344,-0.117188 1.11914,-0.287109c0.228516,-0.181641 0.380859,-0.457031 0.527344,-0.867188l0.503906,-1.44727l1.5,-4.46484c0.263672,-0.779297 0.550781,-1.05469 0.849609,-1.16602l0,-0.251953c-0.181641,0.0351562 -0.632812,0.046875 -0.919922,0.046875Z" style="fill:#0055fd;fill-rule:nonzero;"/><path d="M82.4564,22.0673c-0.246094,0.0234375 -0.662109,0.0351562 -1.04297,0.0351562c-0.427734,0 -0.984375,-0.0117188 -1.29492,-0.0351562l0,0.240234c1.00781,0.105469 1.16602,0.410156 1.16602,1.72852l0,3.16992c0,1.82227 -0.492188,3.10547 -2.18555,3.10547c-1.27734,0 -1.6582,-0.837891 -1.6582,-2.44336l0,-4.5293c0,-0.873047 0.158203,-0.996094 0.972656,-1.03125l0,-0.240234c-0.445312,0.0234375 -1.17773,0.0351562 -1.89844,0.0351562c-0.744141,0 -1.4707,-0.0117188 -1.88086,-0.0351562l0,0.240234c0.767578,0.0351562 0.902344,0.158203 0.902344,1.03125l0,3.76758c0,1.54102 0.164062,2.39648 0.943359,3.01758c0.591797,0.474609 1.41211,0.609375 2.16211,0.609375c1.21875,0 2.01562,-0.433594 2.42578,-1.11914c0.375,-0.626953 0.492188,-1.5 0.492188,-2.54297l0,-3.18164c0,-1.16016 0.134766,-1.47656 0.896484,-1.58203l0,-0.240234Z" style="fill:#0055fd;fill-rule:nonzero;"/><path d="M86.7865,22.0673c-0.433594,0.0234375 -1.14844,0.0351562 -1.81641,0.0351562c-0.767578,0 -1.48828,-0.0117188 -1.89258,-0.0351562l0,0.240234c0.755859,0.0351562 0.896484,0.158203 0.896484,1.03125l0,5.95312c0,0.873047 -0.134766,0.996094 -0.896484,1.03125l0,0.240234c0.404297,-0.0234375 1.125,-0.0351562 1.89258,-0.0351562c0.667969,0 1.38281,0.0117188 1.81641,0.0351562l0,-0.240234c-0.761719,-0.0351562 -0.902344,-0.158203 -0.902344,-1.03125l0,-5.95312c0,-0.873047 0.134766,-0.996094 0.902344,-1.03125l0,-0.240234Z" style="fill:#0055fd;fill-rule:nonzero;"/></g></svg>