<?xml version="1.0" encoding="UTF-8" standalone="no"?>
<svg width="265px" height="46px" viewBox="0 0 265 46" version="1.1" xmlns="http://www.w3.org/2000/svg" xmlns:xlink="http://www.w3.org/1999/xlink" xmlns:sketch="http://www.bohemiancoding.com/sketch/ns">
    <!-- Generator: Sketch 3.3 (11970) - http://www.bohemiancoding.com/sketch -->
    <title>ZN - logo</title>
    <desc>Created with Sketch.</desc>
    <defs></defs>
    <g id="Page-1" stroke="none" stroke-width="1" fill="none" fill-rule="evenodd" sketch:type="MSPage">
        <g id="AR---Design-1-Copy" sketch:type="MSArtboardGroup" transform="translate(-379.000000, -447.000000)">
            <g id="ZN---logo" sketch:type="MSLayerGroup" transform="translate(378.000000, 446.500000)">
                <g id="Proxima-Nova-Notes" transform="translate(0.934701, 0.070896)" sketch:type="MSShapeGroup">
                    <g id="ic_settings_backup_restore_black_24px-copy-2" transform="translate(171.353002, 26.831930) rotate(-90.000000) translate(-171.353002, -26.831930) translate(152.415102, 6.893579)">
                        <path d="M0,0 L37.8757996,0 L37.8757996,38.0525554 L0,38.0525554 L0,0 L0,0 Z" id="Shape"></path>
                        <path d="M18.9378998,4.75656943 C11.094453,4.75656943 4.73447495,11.1462277 4.73447495,19.0262777 L0,19.0262777 L6.31263327,25.3683703 L12.6252665,19.0262777 L7.89079157,19.0262777 C7.89079157,12.8903031 12.8304271,7.9276157 18.9378998,7.9276157 C25.0453725,7.9276157 29.9850081,12.8903031 29.9850081,19.0262777 C29.9850081,25.1622522 25.0453725,30.1249398 18.9378998,30.1249398 C16.5548807,30.1249398 14.3454591,29.3480333 12.530577,28.0637597 L10.2895922,30.3469128 C12.6883929,32.1861197 15.6868937,33.295986 18.9378998,33.295986 C26.7813465,33.295986 33.1413246,26.9063276 33.1413246,19.0262777 C33.1413246,11.1462277 26.7813465,4.75656943 18.9378998,4.75656943 L18.9378998,4.75656943 L18.9378998,4.75656943 Z" id="Shape" fill="#5F5F5F"></path>
                    </g>
                    <path d="M30.3317172,40.979675 L30.3317172,36.5031334 L7.33042398,36.5031334 L29.9102275,4.80437904 L29.9102275,0.630306431 L0.947866163,0.630306431 L0.947866163,5.10684807 L23.5276698,5.10684807 L0.947866163,36.8056023 L0.947866163,40.979675 L30.3317172,40.979675 L30.3317172,40.979675 Z M40.0259796,7.58709412 C41.7119383,7.58709412 43.0968328,6.25623038 43.0968328,4.56240382 C43.0968328,2.86857724 41.7119383,1.47721971 40.0259796,1.47721971 C38.4002337,1.47721971 37.0153392,2.86857724 37.0153392,4.56240382 C37.0153392,6.25623038 38.4002337,7.58709412 40.0259796,7.58709412 L40.0259796,7.58709412 L40.0259796,7.58709412 Z M42.3140664,40.979675 L42.3140664,11.7611667 L37.7981055,11.7611667 L37.7981055,40.979675 L42.3140664,40.979675 L42.3140664,40.979675 Z M75.4913244,40.979675 L75.4913244,20.4722747 C75.4913244,14.1204252 72.3000455,11.0352411 66.2185518,11.0352411 C61.8832294,11.0352411 57.9091841,13.5759809 55.8619485,15.9957331 L55.8619485,11.7611667 L51.3459878,11.7611667 L51.3459878,40.979675 L55.8619485,40.979675 L55.8619485,19.6253615 C57.5479072,17.2661031 60.9198246,15.0883261 64.4723802,15.0883261 C68.386213,15.0883261 70.9753637,16.7216588 70.9753637,21.8636323 L70.9753637,40.979675 L75.4913244,40.979675 L75.4913244,40.979675 Z M110.11369,40.979675 L97.167936,25.0093101 L110.053477,11.7611667 L104.33326,11.7611667 L89.0392065,27.3080748 L89.0392065,0.630306431 L84.5232458,0.630306431 L84.5232458,40.979675 L89.0392065,40.979675 L89.0392065,32.6315299 L93.8562313,27.852519 L104.33326,40.979675 L110.11369,40.979675 L110.11369,40.979675 Z M148.890739,40.979675 L148.890739,0.630306431 L143.893076,0.630306431 L143.893076,32.1475794 L120.771357,0.630306431 L115.653268,0.630306431 L115.653268,40.979675 L120.650932,40.979675 L120.650932,8.79697024 L144.073714,40.979675 L148.890739,40.979675 L148.890739,40.979675 Z M199.890989,41.7056007 C202.540352,41.7056007 204.166099,40.9191813 205.310141,39.8302927 L203.985459,36.4426396 C203.383332,37.1080715 202.179076,37.6525157 200.914607,37.6525157 C198.927584,37.6525157 197.964179,36.0796767 197.964179,33.9018997 L197.964179,15.7537579 L203.865034,15.7537579 L203.865034,11.7611667 L197.964179,11.7611667 L197.964179,3.77598435 L193.448218,3.77598435 L193.448218,11.7611667 L188.631194,11.7611667 L188.631194,15.7537579 L193.448218,15.7537579 L193.448218,34.8698006 C193.448218,39.2253545 195.61588,41.7056007 199.890989,41.7056007 L199.890989,41.7056007 L199.890989,41.7056007 Z M223.373985,41.7056007 C228.130797,41.7056007 232.044629,40.1327617 234.934843,37.229059 L232.767184,34.2648626 C230.479096,36.6241211 227.10718,37.9549847 223.795475,37.9549847 C217.533342,37.9549847 213.679722,33.3574555 213.318445,27.852519 L236.861653,27.852519 L236.861653,26.7031369 C236.861653,17.9315349 231.683352,11.0352411 222.892283,11.0352411 C214.582914,11.0352411 208.561633,17.8710411 208.561633,26.3401739 C208.561633,35.4747387 214.763552,41.7056007 223.373985,41.7056007 L223.373985,41.7056007 L223.373985,41.7056007 Z M232.405906,24.5253597 L213.318445,24.5253597 C213.559297,20.0488182 216.630149,14.785857 222.83207,14.785857 C229.455479,14.785857 232.345694,20.1698057 232.405906,24.5253597 L232.405906,24.5253597 L232.405906,24.5253597 Z M253.359965,41.7056007 C260.886566,41.7056007 264.800398,37.7735032 264.800398,32.8735051 C264.800398,21.5006696 246.796768,25.735236 246.796768,19.3228925 C246.796768,16.7216588 249.265493,14.7253632 253.239538,14.7253632 C256.972732,14.7253632 260.164011,16.2982022 261.910183,18.4154854 L264.017631,15.2698075 C261.669331,12.910549 258.176989,11.0352411 253.239538,11.0352411 C246.315066,11.0352411 242.401232,14.9068446 242.401232,19.4438801 C242.401232,30.2722714 260.404863,25.9167173 260.404863,32.9944926 C260.404863,35.8981952 257.996349,38.0154784 253.540602,38.0154784 C249.566558,38.0154784 245.893576,36.0796767 243.966766,33.841406 L241.618467,37.1080715 C244.568894,40.2537494 248.603151,41.7056007 253.359965,41.7056007 L253.359965,41.7056007 L253.359965,41.7056007 Z" id="ZinkNotes" fill="#5F5F5F"></path>
                </g>
            </g>
        </g>
    </g>
</svg>